# xmcd
#
# Track frame offsets:
#	150
#	11602
#	27572
#	43511
#	56249
#	77013
#	90225
#	99342
#	109692
#	123235
#	147136
#	165829
#	182944
#
# Disc length: 2714 seconds
#
# Revision: 0
# Processed by: cddbd v1.5.2PL0 Copyright (c) Steve Scherf et al.
# Submitted via: audiograbber 1.82.02
#
DISCID=9a0a980d
DTITLE=Richie Lawrence - Water
DYEAR=2012
DGENRE=
TTITLE0=CALL ME BACK 
TTITLE1=TRACKS OF TIME
TTITLE2=MAYBE YOU AND ME
TTITLE3=BUNNY RABBIT
TTITLE4=POETS PRAYER
TTITLE5=MAN ABOUT TOWN
TTITLE6=PIRATE KITTY
TTITLE7=ROOSTER
TTITLE8=WATER
TTITLE9=OLD FRIENDS
TTITLE10=MARRY ME 
TTITLE11=FIELDS WHERE THEY LAY
TTITLE12=POETS PRAYER instrumental
EXTD=
EXTT0=
EXTT1=
EXTT2=
EXTT3=
EXTT4=
EXTT5=
EXTT6=
EXTT7=
EXTT8=
EXTT9=
EXTT10=
EXTT11=
EXTT12=
PLAYORDER=
